<svg width="32" height="32" viewBox="0 0 32 32" fill="none" xmlns="http://www.w3.org/2000/svg">
<path d="M29.7143 0H2.28571C1.67969 0.000605116 1.09866 0.241615 0.670139 0.670139C0.241615 1.09866 0.000605116 1.67969 0 2.28571V29.7143C0.000605116 30.3203 0.241615 30.9013 0.670139 31.3299C1.09866 31.7584 1.67969 31.9994 2.28571 32H29.7143C30.3202 31.9991 30.9011 31.758 31.3295 31.3295C31.758 30.9011 31.9991 30.3202 32 29.7143V2.28571C31.9994 1.67969 31.7584 1.09866 31.3299 0.670139C30.9013 0.241615 30.3203 0.000605116 29.7143 0ZM29.7143 10.2857H13.7143V2.28571H29.7143V10.2857ZM11.4286 2.28571V10.2857H2.28571V2.28571H11.4286ZM2.28571 29.7143V12.5714H29.7143L29.7166 29.7143H2.28571Z" fill="#F9F9F9"/>
</svg>
